<svg xmlns="http://www.w3.org/2000/svg" viewBox="0 0 1574.06 171.4"><defs><style>.cls-1{fill:#004888;}.cls-2{fill:#fff;stroke:#e96126;stroke-miterlimit:10;stroke-width:2px;}</style></defs><g id="Capa_2" data-name="Capa 2"><g id="Capa_1-2" data-name="Capa 1"><polygon class="cls-1" points="590.92 0 585.39 0 617.8 67.98 623.33 67.98 590.92 0"/><polygon class="cls-1" points="616.61 0 611.08 0 643.49 67.98 649.02 67.98 616.61 0"/><polygon class="cls-1" points="642.29 0 636.76 0 669.18 67.98 674.71 67.98 642.29 0"/><polygon class="cls-1" points="667.98 0 662.45 0 694.87 67.98 700.4 67.98 667.98 0"/><polygon class="cls-1" points="693.67 0 688.14 0 720.56 67.98 726.09 67.98 693.67 0"/><polygon class="cls-1" points="719.36 0 713.83 0 746.25 67.98 751.78 67.98 719.36 0"/><polygon class="cls-1" points="745.05 0 739.52 0 771.94 67.98 777.47 67.98 745.05 0"/><polygon class="cls-1" points="770.74 0 765.21 0 797.63 67.98 803.16 67.98 770.74 0"/><polygon class="cls-1" points="796.43 0 790.9 0 823.32 67.98 828.85 67.98 796.43 0"/><polygon class="cls-1" points="822.12 0 816.59 0 849 67.98 854.53 67.98 822.12 0"/><polygon class="cls-1" points="847.81 0 842.28 0 874.69 67.98 880.22 67.98 847.81 0"/><polygon class="cls-1" points="873.5 0 867.97 0 900.38 67.98 905.91 67.98 873.5 0"/><polygon class="cls-1" points="899.19 0 893.66 0 926.07 67.98 931.6 67.98 899.19 0"/><polygon class="cls-1" points="924.88 0 919.35 0 951.76 67.98 957.29 67.98 924.88 0"/><polygon class="cls-1" points="950.56 0 945.03 0 977.45 67.98 982.98 67.98 950.56 0"/><polygon class="cls-1" points="976.25 0 970.72 0 1003.14 67.98 1008.67 67.98 976.25 0"/><polygon class="cls-1" points="1001.94 0 996.41 0 1028.83 67.98 1034.36 67.98 1001.94 0"/><polygon class="cls-1" points="1027.63 0 1022.1 0 1054.52 67.98 1060.05 67.98 1027.63 0"/><polygon class="cls-1" points="1506.38 51.91 485.82 51.91 485.82 155.48 1569.06 155.48 1506.38 51.91"/><path class="cls-1" d="M1506.38,46.91H527.21c-13.22,0-26.48-.27-39.7,0-.57,0-1.13,0-1.69,0a5.07,5.07,0,0,0-5,5V155.48a5.07,5.07,0,0,0,5,5H1525.09c14,0,28.09.27,42.13,0h1.84a5,5,0,0,0,4.31-7.52l-54.89-90.71-7.78-12.86c-3.33-5.5-12-.48-8.64,5l54.9,90.71,7.78,12.85,4.32-7.52H529.79c-13.91,0-28.25-1-42.13,0-.61,0-1.23,0-1.84,0l5,5V51.91l-5,5H1465c13.23,0,26.49.28,39.71,0h1.69C1512.81,56.91,1512.82,46.91,1506.38,46.91Z"/><polygon class="cls-2" points="1451.94 42.88 1 42.88 1 170.4 1541.05 170.4 1451.94 42.88"/></g></g></svg>